 <svg  version="1.0" xmlns="http://www.w3.org/2000/svg"  width="900.000000pt" height="1167.000000pt" viewBox="0 0 900.000000 1167.000000"  preserveAspectRatio="xMidYMid meet">  <g transform="translate(0.000000,1167.000000) scale(0.100000,-0.100000)" fill="#000000" stroke="none"> <path d="M1105 11123 c-77 -40 -124 -114 -125 -195 0 -86 18 -113 207 -294 500 -479 981 -1067 1264 -1544 125 -212 339 -361 670 -468 264 -86 462 -129 854 -187 384 -57 588 -96 647 -126 46 -23 73 -93 72 -191 0 -56 -6 -78 -37 -141 -21 -41 -74 -121 -120 -177 -214 -263 -240 -304 -264 -418 -11 -53 -11 -70 2 -119 13 -48 98 -208 140 -263 6 -8 22 -39 34 -69 19 -44 20 -56 9 -66 -7 -7 -71 -38 -143 -71 -534 -240 -897 -501 -1111 -800 -105 -148 -167 -287 -199 -448 -34 -172 -4 -477 59 -611 8 -16 22 -50 32 -75 10 -25 38 -78 61 -118 24 -41 43 -76 43 -79 0 -17 150 -186 215 -241 258 -224 606 -325 1067 -309 181 6 335 19 453 37 92 14 249 39 305 48 25 4 53 6 63 4 39 -8 167 -318 237 -577 35 -127 57 -249 71 -399 12 -124 11 -150 -4 -238 -20 -118 -40 -159 -104 -219 -43 -40 -219 -176 -268 -206 -204 -128 -548 -303 -715 -365 -30 -11 -59 -24 -65 -28 -5 -4 -86 -40 -180 -80 -159 -67 -447 -206 -525 -253 -216 -129 -345 -234 -449 -362 -143 -178 -200 -312 -227 -538 -21 -175 -11 -231 56 -298 48 -48 94 -65 165 -60 83 5 169 84 179 164 3 23 10 84 16 136 23 202 131 362 335 499 106 71 280 165 425 229 41 19 93 42 115 53 22 10 109 48 193 84 85 37 187 82 228 101 41 19 77 35 80 35 10 0 380 187 422 214 23 14 44 26 46 26 5 0 113 70 204 132 100 68 292 234 337 292 198 256 217 688 54 1251 -11 39 -24 86 -29 105 -5 19 -19 60 -30 90 -12 30 -25 66 -30 80 -40 122 -154 347 -219 431 -78 101 -135 132 -252 137 -53 3 -127 -2 -186 -11 -54 -9 -147 -23 -208 -32 -60 -8 -158 -22 -218 -30 -147 -20 -432 -29 -542 -17 -259 30 -421 98 -561 237 -107 107 -169 213 -225 390 -27 87 -27 269 2 349 119 340 515 648 1219 949 152 64 201 103 241 192 24 53 26 210 3 281 -42 130 -111 278 -165 356 -11 14 -19 29 -19 32 0 3 24 34 53 68 74 89 160 197 186 236 91 131 159 315 168 453 9 125 -33 288 -114 444 -39 76 -159 163 -268 194 -146 43 -258 66 -460 96 -60 10 -142 23 -182 31 -40 8 -85 14 -102 14 -16 0 -64 7 -107 15 -44 8 -117 22 -164 31 -361 66 -614 148 -766 249 -61 41 -132 118 -163 178 -21 41 -138 221 -214 328 -20 30 -45 65 -54 79 -41 59 -202 271 -262 345 -251 308 -343 408 -670 736 -187 186 -280 272 -312 287 -54 26 -130 28 -174 5z"/> <path d="M7307 8450 c-16 -5 -45 -21 -65 -37 -32 -24 -581 -480 -967 -802 -243 -204 -440 -366 -466 -386 -15 -11 -104 -85 -199 -165 -152 -128 -175 -151 -196 -198 -28 -64 -30 -87 -8 -144 20 -50 57 -93 99 -116 37 -19 131 -20 165 -2 30 15 128 92 226 175 39 33 131 110 205 171 74 61 163 136 199 166 155 130 365 305 400 333 61 49 364 298 376 310 14 13 63 54 239 200 237 196 254 218 242 334 -6 60 -41 112 -95 144 -36 21 -116 30 -155 17z"/> <path d="M7520 6534 c-14 -3 -39 -9 -56 -15 -17 -5 -55 -14 -85 -19 -30 -5 -97 -18 -149 -30 -106 -23 -107 -24 -345 -75 -93 -20 -188 -40 -210 -45 -107 -22 -199 -41 -285 -61 -52 -11 -113 -25 -135 -29 -22 -5 -74 -15 -115 -23 -342 -68 -386 -86 -429 -173 -45 -89 -11 -212 74 -264 39 -24 138 -27 229 -6 34 8 86 19 116 26 30 6 84 18 120 26 36 8 88 19 115 24 28 5 82 16 120 25 39 9 131 29 205 45 74 16 178 38 230 50 52 12 118 25 145 30 69 12 140 27 205 44 30 8 96 22 145 32 213 39 279 64 318 116 53 71 59 139 22 215 -42 84 -134 126 -235 107z"/> <path d="M5910 5247 c-55 -26 -84 -54 -106 -102 -29 -61 -30 -109 -5 -166 32 -71 87 -111 179 -129 48 -9 113 -23 282 -60 52 -12 158 -34 235 -51 77 -17 169 -37 205 -45 36 -8 121 -26 190 -39 69 -14 139 -29 155 -34 17 -5 64 -16 105 -24 87 -18 159 -33 250 -53 36 -8 117 -25 180 -39 133 -27 300 -63 485 -105 72 -15 144 -31 160 -34 17 -3 73 -14 125 -26 87 -18 98 -19 145 -5 51 14 100 56 125 104 18 36 17 140 -3 176 -45 81 -80 99 -262 137 -174 36 -250 53 -340 73 -38 9 -90 20 -115 24 -25 5 -65 14 -90 20 -25 6 -110 25 -190 41 -80 17 -174 37 -210 45 -36 8 -101 22 -145 31 -44 9 -102 22 -130 29 -27 8 -88 21 -135 30 -47 9 -157 32 -245 51 -88 19 -182 39 -210 45 -27 6 -75 17 -105 24 -30 8 -93 21 -140 30 -78 15 -112 22 -252 54 -59 14 -106 13 -138 -2z"/> </g> </svg> 